HIERARCHY
ROOT butt
{
	OFFSET 0.000000 0.000000 0.000000
	CHANNELS 6 Xposition Yposition Zposition Xrotation Yrotation Zrotation
	JOINT lhip
	{
		OFFSET 0.583813 0.718669 -0.323938
		CHANNELS 6 Xposition Yposition Zposition Xrotation Yrotation Zrotation
		JOINT lknee
		{
			OFFSET 0.553245 0.216339 -1.020714
			CHANNELS 6 Xposition Yposition Zposition Xrotation Yrotation Zrotation
			JOINT lankle
			{
				OFFSET -0.339279 0.080945 -1.465530
				CHANNELS 6 Xposition Yposition Zposition Xrotation Yrotation Zrotation
				End Site
				{
					OFFSET 0.537810 -0.043777 -0.195635
				}
			}
		}
	}
	JOINT rhip
	{
		OFFSET 0.339136 -0.940503 -0.149914
		CHANNELS 6 Xposition Yposition Zposition Xrotation Yrotation Zrotation
		JOINT rknee
		{
			OFFSET 0.601234 -0.223249 -1.073499
			CHANNELS 6 Xposition Yposition Zposition Xrotation Yrotation Zrotation
			JOINT rankle
			{
				OFFSET -0.245263 -0.041399 -1.532960
				CHANNELS 6 Xposition Yposition Zposition Xrotation Yrotation Zrotation
				End Site
				{
					OFFSET 0.653910 0.024899 -0.232875
				}
			}
		}
	}
	JOINT abdomen
	{
		OFFSET 0.907647 0.026340 0.317664
		CHANNELS 6 Xposition Yposition Zposition Xrotation Yrotation Zrotation
		JOINT neck
		{
			OFFSET 1.496963 0.039292 -0.038456
			CHANNELS 6 Xposition Yposition Zposition Xrotation Yrotation Zrotation
			End Site
			{
				OFFSET 2.739308 -0.092250 1.009232
			}
		}
		JOINT lshldr
		{
			OFFSET 1.132326 0.559775 -0.444207
			CHANNELS 6 Xposition Yposition Zposition Xrotation Yrotation Zrotation
			JOINT lelbow
			{
				OFFSET -0.149559 0.286290 -0.912030
				CHANNELS 6 Xposition Yposition Zposition Xrotation Yrotation Zrotation
				JOINT lwrist
				{
					OFFSET 0.485181 -0.390159 0.265472
					CHANNELS 6 Xposition Yposition Zposition Xrotation Yrotation Zrotation
					End Site
					{
						OFFSET 0.527290 -0.521758 -0.124363
					}
				}
			}
		}
		JOINT rshldr
		{
			OFFSET 1.100885 -0.503887 -0.296241
			CHANNELS 6 Xposition Yposition Zposition Xrotation Yrotation Zrotation
			JOINT relbow
			{
				OFFSET -0.198937 -0.642069 -0.689888
				CHANNELS 6 Xposition Yposition Zposition Xrotation Yrotation Zrotation
				JOINT rwrist
				{
					OFFSET 0.636091 0.394674 0.001069
					CHANNELS 6 Xposition Yposition Zposition Xrotation Yrotation Zrotation
					End Site
					{
						OFFSET 0.557086 0.133476 -0.377524
					}
				}
			}
		}
	}
}
MOTION
Frames: 9
Frame Time: 0.033333
0.000000 0.000000 0.000000 -8.198548 -3.342624 18.877265 0.583813 0.718669 -0.323938 11.608596 -22.605510 -65.918893 0.553245 0.216339 -1.020714 -28.359550 15.209878 52.768553 -0.339279 0.080945 -1.465531 -11.831253 -7.623649 2.055243 0.339136 -0.940503 -0.149914 -11.427458 -9.152842 -71.384909 0.601234 -0.223249 -1.073499 -14.979590 24.701022 51.702135 -0.245263 -0.041399 -1.532960 2.274698 -8.156293 0.050794 0.907647 0.026340 0.317664 10.436271 10.521415 -1.657195 1.496964 0.039292 -0.038456 -20.143544 1.271886 -38.220598 1.132326 0.559775 -0.444207 13.001318 -13.429625 -16.163977 -0.149559 0.286290 -0.912030 -69.082015 37.878822 51.938989 0.485181 -0.390159 0.265472 9.806553 5.978541 34.202534 1.100885 -0.503887 -0.296241 38.306672 -42.117262 -1.484378 -0.198937 -0.642069 -0.689887 -99.067249 32.697642 37.614429 0.636091 0.394674 0.001069 -24.850834 -34.919639 -27.557139 
0.000300 -0.001170 0.001410 -8.376179 -3.266824 18.818740 0.583813 0.718669 -0.323938 11.837175 -22.740459 -65.755078 0.553245 0.216339 -1.020714 -28.370639 15.202857 52.691491 -0.339279 0.080945 -1.465531 -11.906200 -7.490133 2.091618 0.339136 -0.940503 -0.149914 -11.303442 -9.301010 -71.381289 0.601234 -0.223249 -1.073499 -14.993652 24.709251 51.730183 -0.245263 -0.041399 -1.532960 2.312713 -8.107076 0.048745 0.907647 0.026340 0.317664 10.578474 10.385941 -1.588598 1.496964 0.039292 -0.038456 -20.154534 1.289965 -38.206873 1.132326 0.559775 -0.444207 11.819846 -13.267338 -16.300907 -0.149559 0.286290 -0.912030 -69.066647 37.854380 51.924228 0.485181 -0.390159 0.265472 9.822635 5.984422 34.217738 1.100885 -0.503887 -0.296241 38.257860 -42.089678 -1.519726 -0.198937 -0.642069 -0.689888 -99.071491 32.720496 37.626457 0.636091 0.394674 0.001069 -24.838721 -34.921770 -27.549326 
0.000440 -0.002330 0.002780 -8.538399 -3.184558 18.745174 0.583813 0.718669 -0.323938 12.055667 -22.883302 -65.596228 0.553245 0.216339 -1.020714 -28.380686 15.205328 52.619508 -0.339279 0.080945 -1.465530 -11.969770 -7.367040 2.127446 0.339136 -0.940503 -0.149914 -11.186758 -9.450788 -71.355540 0.601234 -0.223249 -1.073499 -14.996862 24.719853 51.749840 -0.245263 -0.041399 -1.532960 2.345181 -8.057879 0.045853 0.907647 0.026340 0.317664 10.709492 10.246645 -1.512084 1.496964 0.039292 -0.038456 -20.169970 1.309527 -38.187868 1.132326 0.559775 -0.444207 10.585324 -13.082622 -16.427607 -0.149559 0.286290 -0.912030 -69.022641 37.800196 51.883148 0.485182 -0.390159 0.265472 9.877114 6.002515 34.224364 1.100885 -0.503887 -0.296241 38.217524 -42.063679 -1.546919 -0.198937 -0.642069 -0.689888 -99.075391 32.738917 37.632341 0.636091 0.394674 0.001069 -24.826998 -34.922566 -27.535013 
0.000410 -0.003420 0.003960 -8.688462 -3.102994 18.661491 0.583813 0.718669 -0.323938 12.243338 -23.021499 -65.440889 0.553245 0.216339 -1.020714 -28.398118 15.212745 52.569470 -0.339279 0.080945 -1.465531 -12.028187 -7.253405 2.156521 0.339136 -0.940503 -0.149914 -11.081021 -9.609052 -71.319859 0.601234 -0.223249 -1.073499 -14.999140 24.722802 51.770075 -0.245263 -0.041399 -1.532960 2.377654 -8.008684 0.042903 0.907647 0.026340 0.317664 10.825009 10.107649 -1.420904 1.496963 0.039292 -0.038456 -20.182060 1.335112 -38.172496 1.132326 0.559775 -0.444207 9.302678 -12.895818 -16.559278 -0.149559 0.286290 -0.912030 -68.944237 37.718203 51.823347 0.485181 -0.390159 0.265472 9.967533 6.026780 34.245028 1.100885 -0.503887 -0.296241 38.186744 -42.044507 -1.568302 -0.198937 -0.642069 -0.689888 -99.079837 32.752970 37.638560 0.636091 0.394674 0.001069 -24.811417 -34.927002 -27.521112 
0.000280 -0.004350 0.004830 -8.819018 -3.026462 18.584137 0.583813 0.718669 -0.323938 12.403359 -23.134640 -65.315788 0.553245 0.216339 -1.020714 -28.420991 15.216560 52.549543 -0.339279 0.080945 -1.465530 -12.069245 -7.160648 2.183252 0.339136 -0.940503 -0.149914 -10.992954 -9.752187 -71.270449 0.601234 -0.223249 -1.073499 -15.007205 24.732385 51.776338 -0.245263 -0.041399 -1.532960 2.393499 -7.970484 0.038059 0.907647 0.026340 0.317664 10.918610 9.993364 -1.338313 1.496964 0.039292 -0.038456 -20.204850 1.357723 -38.165219 1.132326 0.559775 -0.444207 8.023124 -12.697798 -16.696225 -0.149559 0.286290 -0.912029 -68.853621 37.609477 51.758627 0.485181 -0.390159 0.265472 10.083626 6.062484 34.268951 1.100885 -0.503887 -0.296241 38.156462 -42.022674 -1.591225 -0.198937 -0.642069 -0.689888 -99.082071 32.745344 37.640691 0.636091 0.394674 0.001069 -24.792327 -34.933730 -27.501104 
0.000100 -0.005090 0.005380 -8.935335 -2.956820 18.512714 0.583813 0.718669 -0.323938 12.537077 -23.242089 -65.228730 0.553245 0.216339 -1.020714 -28.449015 15.227019 52.555656 -0.339279 0.080945 -1.465531 -12.104658 -7.088014 2.200747 0.339136 -0.940503 -0.149914 -10.904657 -9.892061 -71.229523 0.601234 -0.223249 -1.073499 -15.025906 24.745772 51.780282 -0.245263 -0.041399 -1.532960 2.410122 -7.948514 0.039432 0.907647 0.026340 0.317664 11.018085 9.889748 -1.256479 1.496964 0.039292 -0.038456 -20.226453 1.374688 -38.164707 1.132326 0.559775 -0.444207 6.754553 -12.501597 -16.839485 -0.149559 0.286290 -0.912029 -68.760771 37.510228 51.687682 0.485181 -0.390159 0.265472 10.178086 6.090865 34.300145 1.100885 -0.503887 -0.296241 38.132335 -42.002624 -1.603394 -0.198937 -0.642069 -0.689888 -99.079837 32.733415 37.637228 0.636091 0.394674 0.001069 -24.780584 -34.934515 -27.486795 
-0.000080 -0.005690 0.005630 -9.059869 -2.896558 18.457259 0.583813 0.718669 -0.323938 12.661107 -23.359372 -65.175352 0.553245 0.216339 -1.020714 -28.507915 15.249499 52.587966 -0.339279 0.080945 -1.465530 -12.132862 -7.043148 2.218607 0.339136 -0.940503 -0.149914 -10.815033 -10.022993 -71.192168 0.601234 -0.223249 -1.073499 -15.051531 24.767270 51.780381 -0.245263 -0.041399 -1.532960 2.425990 -7.937762 0.035723 0.907647 0.026340 0.317664 11.123343 9.786249 -1.191315 1.496963 0.039292 -0.038456 -20.251166 1.389432 -38.170861 1.132326 0.559775 -0.444207 5.538481 -12.304694 -16.972639 -0.149559 0.286290 -0.912030 -68.700590 37.443264 51.649146 0.485181 -0.390159 0.265472 10.234365 6.106708 34.334415 1.100885 -0.503887 -0.296241 38.098904 -41.964245 -1.625689 -0.198937 -0.642069 -0.689888 -99.075603 32.720349 37.625863 0.636091 0.394674 0.001069 -24.768477 -34.936633 -27.478968 
-0.000320 -0.006120 0.005550 -9.180815 -2.846470 18.401588 0.583813 0.718669 -0.323938 12.775046 -23.496448 -65.160544 0.553245 0.216339 -1.020714 -28.615694 15.297120 52.653997 -0.339279 0.080945 -1.465530 -12.165592 -7.040216 2.221110 0.339136 -0.940503 -0.149914 -10.720575 -10.147649 -71.151925 0.601234 -0.223249 -1.073499 -15.090034 24.797335 51.773360 -0.245263 -0.041399 -1.532960 2.452953 -7.937978 0.034009 0.907647 0.026340 0.317664 11.241340 9.691296 -1.144361 1.496964 0.039292 -0.038456 -20.280469 1.403760 -38.166598 1.132326 0.559775 -0.444207 4.393537 -12.113349 -17.100649 -0.149559 0.286290 -0.912030 -68.675735 37.425403 51.639215 0.485181 -0.390159 0.265472 10.238170 6.111083 34.350422 1.100885 -0.503887 -0.296241 38.070928 -41.919121 -1.629721 -0.198937 -0.642069 -0.689887 -99.072263 32.707355 37.621023 0.636091 0.394674 0.001069 -24.757638 -34.944873 -27.467220 
-0.000760 -0.006290 0.004840 -9.287649 -2.838480 18.354943 0.583813 0.718669 -0.323938 12.862383 -23.648907 -65.188220 0.553245 0.216339 -1.020714 -28.828436 15.383691 52.756350 -0.339279 0.080945 -1.465530 -12.184079 -7.102327 2.216393 0.339136 -0.940503 -0.149914 -10.638692 -10.249441 -71.108840 0.601234 -0.223249 -1.073499 -15.160366 24.843191 51.773913 -0.245263 -0.041399 -1.532960 2.496562 -7.938191 0.034599 0.907647 0.026340 0.317664 11.345353 9.634148 -1.108344 1.496963 0.039292 -0.038456 -20.305570 1.412798 -38.157289 1.132326 0.559775 -0.444207 3.349824 -11.937279 -17.207185 -0.149559 0.286290 -0.912030 -68.700966 37.473976 51.669217 0.485181 -0.390159 0.265472 10.188562 6.095480 34.337813 1.100885 -0.503887 -0.296241 38.077444 -41.882023 -1.576829 -0.198937 -0.642069 -0.689888 -99.075821 32.701781 37.619408 0.636091 0.394673 0.001069 -24.730303 -34.950057 -27.438972 
